PathFileType  4	(X/Y/Z) C:\Users\antoi\Documents\MyRepositories\mobilecap\ResultsAnalysis
DataRate	CameraRate	NumFrames	NumMarkers	Units	OrigDataRate	OrigDataStartFrame	OrigNumFrames
100.0	100.0	6	51	mm	100.0	1	232
Frame#	Time	r_knee			r_shank_antsup			r_ankle			r_calc			r_5meta			r_toe			L_knee			L_shank_antsup			L_ankle			L_calc			L_5meta			L_toe			r_sh2			r_sh3			r_sh4			L_sh2			L_sh3			r_thigh1			r_thigh2			r_thigh3			r_thigh4			r_thigh5			L_thigh1			L_thigh2			L_thigh3			L_thigh4			r.ASIS			r.PSIS			L.ASIS			L.PSIS			C7			R_Shoulder			L_Shoulder			R_Sternum			L_Sternum			R_humerus			R_elbow_med			R_elbow_lat			R_forearm			R_wrist_radius			R_wrist_ulna			L_humerus			L_elbow_med			L_elbow_lat			L_forearm			L_wrist_radius			L_wrist_ulna			R_HJC			L_HJC			R_HJC_reg			L_HJC_reg			
		X1	Y1	Z1	X2	Y2	Z2	X3	Y3	Z3	X4	Y4	Z4	X5	Y5	Z5	X6	Y6	Z6	X7	Y7	Z7	X8	Y8	Z8	X9	Y9	Z9	X10	Y10	Z10	X11	Y11	Z11	X12	Y12	Z12	X13	Y13	Z13	X14	Y14	Z14	X15	Y15	Z15	X16	Y16	Z16	X17	Y17	Z17	X18	Y18	Z18	X19	Y19	Z19	X20	Y20	Z20	X21	Y21	Z21	X22	Y22	Z22	X23	Y23	Z23	X24	Y24	Z24	X25	Y25	Z25	X26	Y26	Z26	X27	Y27	Z27	X28	Y28	Z28	X29	Y29	Z29	X30	Y30	Z30	X31	Y31	Z31	X32	Y32	Z32	X33	Y33	Z33	X34	Y34	Z34	X35	Y35	Z35	X36	Y36	Z36	X37	Y37	Z37	X38	Y38	Z38	X39	Y39	Z39	X40	Y40	Z40	X41	Y41	Z41	X42	Y42	Z42	X43	Y43	Z43	X44	Y44	Z44	X45	Y45	Z45	X46	Y46	Z46	X47	Y47	Z47	X48	Y48	Z48	X49	Y49	Z49	X50	Y50	Z50	X51	Y51	Z51	

1	0.00000000	-1155.31859	804.08677	-444.26765	-1122.15061	732.00859	-466.31310	-1221.50636	404.13851	-458.64367	-1294.78209	370.92338	-489.01777	-1116.24036	353.13278	-433.34566	-1074.80736	379.51150	-494.19346	-1190.41617	805.79258	-716.90663	-1161.79649	711.38576	-716.69881	-1242.91588	406.44751	-698.13763	-1310.50598	371.46356	-661.74618	-1135.31189	352.30939	-737.80444	-1097.86927	375.15537	-679.63438	-1152.24639	622.71308	-441.19211	-1192.36494	752.00009	-428.31381	-1221.84261	644.81946	-422.68125	-1248.90696	727.20282	-728.08509	-1257.20868	605.32908	-736.59383	-1111.51931	1123.32080	-410.92419	-1107.38684	1008.76333	-422.24024	-1160.66140	983.04271	-391.45663	-1220.68653	1116.90161	-388.73330	-1213.84436	999.59714	-399.58348	-1160.01396	1073.53292	-769.69165	-1150.79056	938.52057	-741.78681	-1271.11040	1068.22504	-730.78492	-1255.46620	929.87957	-717.61171	-1097.40083	1276.49430	-451.55264	-1282.21156	1341.40371	-528.98334	-1099.61892	1256.95881	-699.84438	-1288.60164	1342.64552	-631.16165	-1221.91821	1743.94752	-599.70170	-1118.51327	1695.38638	-422.51587	-1139.95790	1701.56795	-774.90259	-1085.46613	1692.77272	-578.36348	-1084.28675	1692.79714	-617.39895	-1121.26713	1553.03104	-365.60800	-1216.43445	1357.08615	-406.26742	-1181.43610	1362.69281	-344.97147	-1114.85223	1238.33515	-351.53195	-1084.74319	1107.48839	-362.07569	-1104.99734	1098.08756	-334.57052	-1130.06468	1576.24870	-827.51674	-1193.72727	1349.16030	-758.99666	-1156.76197	1362.11841	-828.65562	-1089.93403	1268.17875	-808.93383	-1053.83659	1114.80183	-797.39597	-1074.44358	1108.61992	-822.20961	-1187.68892	1209.38333	-470.16172	-1190.43530	1199.17444	-676.36177	-1176.38351	1204.47851	-481.91075	-1186.64314	1206.47231	-645.96366	
2	0.01000000	-1154.62976	804.13363	-444.06520	-1121.73237	732.10044	-466.27877	-1221.48392	404.17049	-458.49946	-1294.71576	370.94319	-488.96834	-1116.23782	353.18627	-433.32311	-1074.85559	379.52169	-494.22275	-1189.69358	805.65353	-716.85185	-1161.10381	711.24881	-716.81522	-1242.91589	406.43251	-698.11638	-1310.58239	371.41514	-661.69304	-1135.31837	352.32755	-737.76577	-1097.87869	375.17288	-679.63863	-1151.95569	622.42743	-441.04274	-1191.83651	751.79652	-428.20689	-1221.41682	644.76105	-422.37801	-1247.88044	727.65227	-728.24002	-1256.85965	605.26434	-736.36058	-1110.17996	1122.49696	-410.92819	-1106.89040	1008.69047	-422.31996	-1160.17653	982.87186	-391.25283	-1220.11197	1116.92029	-388.55769	-1213.38339	999.51281	-399.59050	-1159.25425	1073.61831	-769.99604	-1150.03879	938.25703	-741.57429	-1270.44430	1068.18244	-730.83003	-1254.64992	929.68330	-717.49475	-1096.83255	1276.18598	-451.54739	-1281.44504	1341.59883	-529.14267	-1098.93521	1256.71143	-699.79375	-1287.93513	1342.66143	-631.22722	-1220.42815	1743.98361	-599.48092	-1117.12111	1695.00398	-422.59787	-1138.41289	1701.49722	-774.86861	-1083.99012	1692.63304	-578.24507	-1083.00943	1692.38581	-617.29164	-1120.11463	1552.80138	-365.36528	-1215.29868	1357.02530	-406.62041	-1180.80072	1362.59899	-344.93693	-1114.38106	1238.22059	-351.24678	-1084.61463	1107.22525	-362.14008	-1104.94504	1097.85251	-334.53380	-1128.55492	1576.14393	-827.41681	-1192.66676	1349.37101	-758.89967	-1155.88988	1362.13883	-828.69406	-1089.16334	1267.93598	-808.73193	-1053.56531	1114.59384	-797.50281	-1074.16301	1108.37611	-822.14627	-1187.25804	1209.30353	-470.18912	-1189.91283	1199.07240	-676.38925	-1175.89297	1204.69053	-481.69290	-1186.32005	1206.39784	-645.70457	
3	0.02000000	-1154.04658	804.13061	-443.92477	-1121.19880	731.93993	-466.20139	-1221.43273	404.13409	-458.59077	-1294.78888	370.87924	-488.97489	-1116.23812	353.18045	-433.30370	-1074.84167	379.51426	-494.21881	-1188.87338	805.49817	-716.76482	-1160.40696	711.08570	-716.88386	-1242.91539	406.42888	-698.10583	-1310.59050	371.35671	-661.61621	-1135.32000	352.34005	-737.70860	-1097.88518	375.18573	-679.63270	-1151.67963	622.20830	-440.78028	-1191.17013	751.69014	-428.22314	-1221.04652	644.56408	-422.32993	-1247.02396	727.82862	-728.05293	-1256.45619	605.24450	-736.11184	-1108.51046	1121.92470	-410.98843	-1106.42956	1008.69262	-422.29624	-1159.70365	982.74437	-391.15624	-1219.59270	1116.86184	-388.47023	-1212.85029	999.42421	-399.48642	-1158.50469	1073.53005	-770.02009	-1149.23784	938.06202	-741.51330	-1269.76657	1068.01604	-730.71148	-1253.93654	929.52042	-717.33034	-1096.29359	1275.91807	-451.49252	-1280.72126	1341.71211	-529.18841	-1098.27242	1256.47084	-699.56976	-1287.05880	1342.76910	-631.32418	-1218.72810	1743.88116	-599.43064	-1115.59193	1694.70670	-422.49156	-1136.74798	1701.32959	-774.59529	-1082.40022	1692.46121	-578.09825	-1081.40867	1692.05604	-617.12897	-1118.93071	1552.62732	-365.23842	-1214.37756	1356.87612	-406.90126	-1180.12581	1362.54780	-344.94221	-1113.93340	1238.01798	-351.16482	-1084.48859	1106.85848	-362.19856	-1104.80902	1097.57853	-334.54320	-1126.97965	1575.98796	-827.44749	-1191.70234	1349.41362	-758.91270	-1154.88758	1362.10295	-828.70070	-1088.41517	1267.74971	-808.60837	-1053.26440	1114.36733	-797.61544	-1073.79705	1108.13562	-822.19860	-1186.85419	1209.22966	-470.14621	-1189.33607	1198.99237	-676.34817	-1175.53301	1204.65605	-481.71680	-1185.70413	1206.35218	-645.63077	
4	0.03000000	-1153.44842	804.00137	-443.93440	-1120.55952	731.55985	-466.16440	-1221.37377	404.02964	-458.80053	-1294.82117	370.84851	-488.98343	-1116.23187	353.14971	-433.29297	-1074.80399	379.48214	-494.19645	-1188.02327	805.35886	-716.64428	-1159.68017	710.95484	-716.96230	-1242.91242	406.43797	-698.10298	-1310.54925	371.34070	-661.60607	-1135.32031	352.34757	-737.66527	-1097.90396	375.16296	-679.57248	-1151.35629	622.08940	-440.50330	-1190.50470	751.67309	-428.30810	-1220.65902	644.25407	-422.43120	-1246.35962	727.79629	-727.67114	-1255.97646	605.29117	-735.99869	-1107.88059	1122.07765	-411.01583	-1105.83681	1008.62774	-422.39923	-1159.19915	982.67478	-390.89067	-1219.09805	1116.69890	-388.49169	-1212.22696	999.30172	-399.34129	-1157.74102	1073.33321	-769.86644	-1148.44249	937.98122	-741.54219	-1269.02111	1067.85340	-730.71269	-1253.19729	929.39208	-717.33802	-1095.73811	1275.65617	-451.36583	-1280.00477	1341.78017	-529.17516	-1097.55504	1256.24555	-699.45146	-1286.14442	1342.95013	-631.46927	-1216.90527	1743.74660	-599.39799	-1113.93296	1694.48313	-422.22708	-1134.91795	1701.16624	-774.33584	-1080.70286	1692.24735	-577.99916	-1079.51280	1691.87853	-616.98845	-1117.67331	1552.38649	-365.16784	-1213.81085	1356.88562	-406.72304	-1179.38761	1362.45579	-344.93017	-1113.45949	1237.72426	-351.20226	-1084.27108	1106.44840	-362.19244	-1104.60005	1097.26958	-334.56590	-1125.35629	1575.83866	-827.52413	-1190.94954	1349.24507	-759.11460	-1153.77842	1361.99497	-828.70072	-1087.69200	1267.57966	-808.59581	-1052.90167	1114.06038	-797.65346	-1073.34332	1107.91377	-822.36320	-1186.43261	1209.13845	-470.13570	-1188.72124	1198.95274	-676.34248	-1175.15472	1204.40868	-481.81314	-1184.99398	1206.28341	-645.74857	
5	0.04000000	-1152.71641	803.78734	-444.05389	-1119.93178	731.30806	-466.24238	-1221.32644	403.96100	-458.92518	-1294.80253	370.88656	-489.01300	-1116.21301	353.13688	-433.28214	-1074.80172	379.41615	-494.16886	-1187.22542	805.25293	-716.49762	-1158.96593	710.85935	-717.00513	-1242.90426	406.45192	-698.10266	-1310.51573	371.38156	-661.69289	-1135.32207	352.35456	-737.65404	-1097.93476	375.10717	-679.46594	-1150.91954	621.98536	-440.44534	-1189.97209	751.66519	-428.36035	-1220.22221	643.98381	-422.45143	-1245.71092	727.74733	-727.51261	-1255.49143	605.36419	-736.07141	-1108.33474	1122.47715	-411.00865	-1104.98973	1008.35101	-422.80254	-1158.58357	982.83018	-389.99820	-1218.52980	1116.46886	-388.54183	-1211.58192	999.11608	-399.29554	-1156.95163	1073.16610	-769.76876	-1147.67728	937.97369	-741.57925	-1268.19891	1067.76509	-730.92366	-1252.36349	929.25735	-717.58819	-1095.15715	1275.37197	-451.24293	-1279.23086	1341.86555	-529.23202	-1096.73614	1256.03322	-699.60396	-1285.38220	1343.11241	-631.55682	-1215.05951	1743.71355	-599.23599	-1112.19610	1694.21787	-422.02430	-1132.94746	1701.09690	-774.38134	-1078.94123	1692.00451	-577.96073	-1077.56263	1691.75258	-616.97042	-1116.33030	1552.02136	-365.03894	-1213.27225	1357.10835	-406.22596	-1178.57132	1362.28256	-344.86265	-1112.90978	1237.39056	-351.10424	-1083.95564	1106.07143	-362.13658	-1104.37990	1096.97308	-334.53391	-1123.74154	1575.73557	-827.42017	-1190.12669	1349.10800	-759.27748	-1152.65803	1361.86503	-828.70387	-1086.91388	1267.32973	-808.67381	-1052.44993	1113.65326	-797.54964	-1072.88910	1107.63581	-822.41778	-1185.94717	1209.01788	-470.22292	-1188.10589	1198.93635	-676.43624	-1174.60099	1204.18096	-481.76726	-1184.46669	1206.18067	-645.87670	
6	0.05000000	-1151.93906	803.61554	-444.13322	-1119.34483	731.18443	-466.30152	-1221.29507	403.97592	-458.97205	-1294.94947	370.86497	-489.11452	-1116.18871	353.12172	-433.26543	-1074.81184	379.32833	-494.15038	-1186.45414	805.14665	-716.31200	-1158.33137	710.72471	-716.87269	-1242.88883	406.46444	-698.10702	-1310.51159	371.40770	-661.75962	-1135.32067	352.36037	-737.65327	-1097.95578	375.06837	-679.38742	-1150.39379	621.79420	-440.60161	-1189.41632	751.61609	-428.41440	-1219.76904	643.87506	-422.38508	-1244.94186	727.72826	-727.64233	-1255.04687	605.45751	-736.17022	-1108.05227	1122.21643	-411.00729	-1104.08855	1007.98621	-423.20422	-1157.90758	983.16605	-388.75496	-1217.88909	1116.24768	-388.53002	-1211.00053	998.90227	-399.36410	-1156.16933	1073.04708	-769.71640	-1146.91058	937.95063	-741.62114	-1267.40917	1067.58519	-730.90785	-1251.54535	929.09098	-717.79361	-1094.58316	1275.05333	-451.17248	-1278.40113	1341.95891	-529.31507	-1095.90210	1255.77204	-699.66630	-1284.58763	1343.21521	-631.48766	-1213.08187	1743.72925	-599.09127	-1110.36930	1693.87707	-421.94047	-1130.89594	1701.01711	-774.48175	-1077.09087	1691.73760	-577.87563	-1075.66490	1691.49197	-616.86908	-1114.90019	1551.67262	-364.81641	-1212.28908	1357.17670	-406.06129	-1177.65782	1362.06703	-344.84189	-1112.31623	1237.05858	-350.87717	-1083.67107	1105.70615	-362.06982	-1104.15473	1096.70803	-334.43843	-1122.11723	1575.58984	-827.17388	-1188.93412	1349.18961	-759.18297	-1151.53993	1361.77114	-828.67985	-1086.01437	1267.00224	-808.78065	-1051.91153	1113.24441	-797.37533	-1072.45220	1107.24673	-822.25934	-1185.43747	1208.87618	-470.25783	-1187.49288	1198.87518	-676.47612	-1174.02948	1204.06080	-481.68179	-1183.97115	1206.07967	-645.86975	
